<svg width="172" height="15" viewBox="0 0 172 15" fill="none" xmlns="http://www.w3.org/2000/svg" aria-labelledby="title">
<title id="title" lang="en">Average Joe logo</title>
<g clip-path="url(#clip0)">
<path d="M6.64251 1.05612H5.10406L1.21267 14.7505H0.00604248L4.16289 0.127686H7.63798L11.7647 14.7505H10.558L6.64251 1.05612ZM9.81595 9.64413V10.5842H1.93062V9.65573L9.81595 9.64413Z" fill="#FF7E6A"/>
<path d="M25.4961 0.127686L21.6108 14.7505H18.4615L14.5701 0.127686H15.7465L19.3664 13.8105H20.6937L24.3136 0.127686H25.4961Z" fill="#FF7E6A"/>
<path d="M32.2291 1.05612V7.09094H39.7585V8.01937H32.2291V13.8221H40.6333V14.7505H31.0587V0.127686H40.6333V1.05612H32.2291Z" fill="#FF7E6A"/>
<path d="M47.1491 7.89747V14.7505H45.9968V0.127642H51.4266C52.1477 0.118189 52.8666 0.206086 53.5623 0.388764C54.2052 0.570793 54.7647 0.957497 55.1491 1.48548C55.6223 2.20911 55.8461 3.05791 55.7886 3.91101C55.8301 4.75997 55.6209 5.6029 55.1853 6.34234C54.8523 6.88329 54.3526 7.31118 53.7554 7.56671C53.1681 7.79086 52.5411 7.90319 51.9093 7.89747H47.1491ZM47.1491 6.95743H51.9756C52.3339 6.97665 52.6924 6.92244 53.0273 6.7984C53.3622 6.67436 53.6659 6.4833 53.9183 6.23789C54.4476 5.57658 54.6995 4.74824 54.6242 3.91681C54.6613 3.52506 54.6152 3.13014 54.4886 2.75606C54.3621 2.38199 54.1578 2.03656 53.8881 1.74079C53.6083 1.50122 53.2819 1.31736 52.9277 1.19984C52.5736 1.08231 52.1987 1.03345 51.8248 1.05608H47.1491V6.95743ZM51.9274 7.5377L53.0314 7.35782L55.4025 14.7505H54.1958L51.9274 7.5377Z" fill="#FF7E6A"/>
<path d="M67.0887 1.05612H65.5442L61.6588 14.7505H60.4522L64.603 0.127686H68.0781L72.2048 14.7505H70.9982L67.0887 1.05612ZM70.2621 9.64413V10.5842H62.3768V9.65573L70.2621 9.64413Z" fill="#FF7E6A"/>
<path d="M87.0041 7.1025V7.9613C87.0447 9.25295 86.8403 10.5409 86.4008 11.7621C86.0555 12.7131 85.4259 13.5448 84.5908 14.1528C83.7277 14.7312 82.6918 15.0226 81.6406 14.9826C80.8596 15.0075 80.0823 14.8688 79.3625 14.5763C78.6426 14.2837 77.9975 13.8442 77.4717 13.2882C76.3978 12.1625 75.8609 10.2282 75.8609 7.48547C75.7959 5.95716 76.0737 4.4333 76.6754 3.01739C77.1034 2.04121 77.8512 1.2262 78.8051 0.696306C79.707 0.247513 80.7097 0.0183797 81.7251 0.0289944C82.6951 0.00259396 83.6575 0.201648 84.5305 0.609265C85.2676 0.973175 85.8919 1.51759 86.3405 2.1876L85.2726 2.76787C85.1384 2.56727 84.9934 2.37358 84.8382 2.1876C84.4999 1.79394 84.0672 1.48527 83.5773 1.28818C82.9902 1.06509 82.3622 0.958504 81.7311 0.974836C81.064 0.948326 80.4003 1.08 79.7985 1.35827C79.1967 1.63654 78.6753 2.05287 78.2802 2.57058C77.4536 3.63828 77.0434 5.27464 77.0434 7.49128C77.0026 8.7489 77.1905 10.0037 77.5984 11.1992C77.8795 12.0544 78.4324 12.8032 79.1791 13.3404C79.9071 13.8115 80.7695 14.0529 81.6467 14.0309C82.4133 14.0405 83.1669 13.8391 83.8186 13.4507C84.5187 12.9914 85.0473 12.3284 85.3269 11.559C85.7382 10.4324 85.9264 9.24162 85.8819 8.04834H81.8639V7.1025H87.0041Z" fill="#FF7E6A"/>
<path d="M93.6526 1.05612V7.09094H101.164V8.01937H93.6526V13.8221H102.057V14.7505H92.4762V0.127686H102.057V1.05612H93.6526Z" fill="#FF7E6A"/>
<path d="M122.051 14.4023C121.273 13.9602 120.672 13.2798 120.343 12.47C119.9 11.3605 119.695 10.1762 119.74 8.98842H120.868C120.838 9.96381 120.989 10.9366 121.315 11.8608C121.55 12.5259 122.003 13.1 122.606 13.4971C123.245 13.8396 123.965 14.0194 124.696 14.0194C125.428 14.0194 126.148 13.8396 126.787 13.4971C127.386 13.1003 127.833 12.5255 128.06 11.8608C128.378 10.9347 128.533 9.96378 128.518 8.98842V1.05612H121.345V0.127686H129.652V8.96521C129.69 10.1525 129.485 11.3354 129.049 12.4468C128.731 13.2628 128.136 13.9517 127.36 14.4023C126.536 14.7991 125.627 15.0057 124.705 15.0057C123.784 15.0057 122.875 14.7991 122.051 14.4023V14.4023Z" fill="#FF7E6A"/>
<path d="M137.327 14.2805C136.388 13.7188 135.656 12.8889 135.233 11.9072C134.633 10.505 134.355 8.99472 134.419 7.4797C134.354 5.96839 134.632 4.46171 135.233 3.06384C135.658 2.08616 136.39 1.26052 137.327 0.702139C138.195 0.241401 139.171 -0.000244141 140.162 -0.000244141C141.154 -0.000244141 142.129 0.241401 142.998 0.702139C143.934 1.25815 144.662 2.08491 145.079 3.06384C145.675 4.46307 145.95 5.96904 145.888 7.4797C145.949 8.99408 145.674 10.5036 145.079 11.9072C144.664 12.8902 143.935 13.7211 142.998 14.2805C142.129 14.7412 141.154 14.9829 140.162 14.9829C139.171 14.9829 138.195 14.7412 137.327 14.2805V14.2805ZM142.431 13.3927C143.19 12.8821 143.764 12.1556 144.072 11.3153C144.523 10.0849 144.728 8.78341 144.675 7.4797C144.726 6.18364 144.522 4.88998 144.072 3.66732C143.764 2.827 143.19 2.10055 142.431 1.58995C141.758 1.17403 140.974 0.956206 140.174 0.963261C139.367 0.954714 138.575 1.17248 137.894 1.58995C137.135 2.10055 136.561 2.827 136.253 3.66732C135.803 4.89005 135.598 6.18366 135.649 7.4797C135.597 8.7834 135.802 10.0848 136.253 11.3153C136.561 12.1556 137.135 12.8821 137.894 13.3927C138.575 13.8101 139.367 14.0279 140.174 14.0194C140.974 14.0264 141.758 13.8086 142.431 13.3927V13.3927Z" fill="#FF7E6A"/>
<path d="M152.578 1.05612V7.09094H160.096V8.01937H152.578V13.8221H160.989V14.7505H151.402V0.127686H160.983V1.05612H152.578Z" fill="#FF7E6A"/>
<path d="M169.514 14.6229C169.388 14.5035 169.288 14.3606 169.222 14.2029C169.156 14.0452 169.123 13.8762 169.127 13.7061C169.123 13.5368 169.155 13.3685 169.221 13.2116C169.288 13.0548 169.387 12.913 169.514 12.7951C169.64 12.6756 169.79 12.5818 169.955 12.519C170.119 12.4562 170.296 12.4258 170.473 12.4295C170.649 12.4259 170.824 12.4564 170.988 12.5192C171.152 12.582 171.301 12.6758 171.426 12.7951C171.553 12.9127 171.654 13.0544 171.721 13.2111C171.789 13.3679 171.822 13.5364 171.818 13.7061C171.821 13.8765 171.788 14.0457 171.72 14.2034C171.653 14.361 171.553 14.5038 171.426 14.6229C171.303 14.746 171.155 14.843 170.991 14.908C170.827 14.9729 170.65 15.0043 170.473 15.0001C170.295 15.0044 170.117 14.9731 169.952 14.9081C169.787 14.8432 169.638 14.7461 169.514 14.6229V14.6229Z" fill="#FF7E6A"/>
</g>
<defs>
<clipPath id="clip0">
<rect width="171.818" height="15" fill="white"/>
</clipPath>
</defs>
</svg>
