<svg version="1" xmlns="http://www.w3.org/2000/svg" viewBox="0 0 16 16">
<path d="M9.8,0.5c0,0-0.1,0-0.2,0.1C9.4,0.7,9,0.8,7.8,1.1C7.5,1.2,7.3,1.3,7.2,1.3C7,1.4,6.4,1.6,6.3,1.6c0,0-0.1,0-0.1,0.1
	C6.2,1.7,6,2.5,6,2.5c0,0,0,0.1-0.1,0.2C5.8,3.1,5.5,3.9,5.5,3.9c0,0,0,0,0,0c0,0,0,0.1,0,0.1S5.4,4.2,5.4,4.3
	c0,0.1-0.1,0.2-0.1,0.2c0,0,0,0,0,0c0,0,0,0.1-0.1,0.2c0,0.1-0.1,0.3-0.2,0.5S4.9,5.6,4.9,5.6c0,0-0.1,0.2-0.2,0.5
	C4.7,6.3,4.6,6.6,4.5,6.7c0,0.1-0.1,0.3-0.2,0.5C4.3,7.3,4.3,7.5,4.3,7.5c0,0,0,0.1-0.1,0.2C4.1,8,3.8,8.8,3.8,9
	c0,0.1-0.1,0.4-0.2,0.7c-0.1,0.3-0.2,0.7-0.3,0.9C3.2,10.7,3.1,11,3,11.1c0,0.1-0.1,0.3-0.1,0.4c0,0.1-0.1,0.2-0.1,0.2
	c0,0-0.1,0.2-0.1,0.3c-0.3,0.8-0.5,1.3-0.7,1.7c-0.4,0.8-1,1.3-1.5,1.4c-0.1,0-0.2,0-0.3,0.1c-0.1,0-0.1,0-0.1,0c0,0,0,0,0,0.1
	l0,0.1l0.1,0c0,0,0.2,0,0.3,0c0.5,0,0.8,0,1.6,0c1,0,1.6,0,2.2,0c0.2,0,0.2,0,0.2-0.1c0-0.1,0-0.1-0.3-0.1c-1.1,0-1.6-0.4-1.6-1.3
	c0-0.2,0-0.3,0.1-0.6c0-0.1,0-0.1,0-0.2c0.1-0.3,0.2-0.9,0.5-1.8c0.1-0.2,0.2-0.7,0.4-1.2C3.7,10,3.7,9.7,3.8,9.6l0-0.1h2.1
	c2.1,0,2.1,0,2.1,0c0,0,0.1,0.2,0.1,0.5c0.1,0.2,0.2,0.5,0.2,0.6c0.1,0.2,0.1,0.2,0.1,0.3c0,0,0.1,0.2,0.1,0.4
	C8.8,12.4,9,12.9,9,13.1c0,0,0,0.1,0,0.2c0,0.1,0,0.1,0,0.2c0,0,0,0.1,0,0.2c0.1,0.3,0.1,0.4,0.1,0.6c0,0.2,0,0.3-0.1,0.4
	c-0.1,0.3-0.3,0.4-0.5,0.5c-0.2,0-0.2,0.1-0.4,0.1c-0.1,0-0.2,0-0.2,0c0,0,0,0.1,0,0.1l0,0.1l0.1,0c0.1,0,0.3,0,0.4,0
	c0.8,0,1.5,0,3.4,0c2,0,3,0,3.8,0l0.2,0v-0.2l-0.1,0c-0.3,0-0.5-0.1-0.7-0.2c-0.3-0.2-0.6-0.6-0.8-1.2c-0.5-1.6-0.7-2.2-0.7-2.2
	c0,0,0,0,0,0c0,0,0-0.1,0-0.1c0-0.1,0-0.1,0-0.1c0,0,0,0,0,0c0,0-0.1-0.4-0.3-0.9c-0.2-0.5-0.3-1-0.4-1.1s-0.2-0.6-0.4-1.2
	C12.2,7.6,12,7,12,6.8c-0.1-0.2-0.1-0.4-0.1-0.4c0,0-0.4-1.3-0.7-1.9c0-0.1-0.2-0.6-0.4-1.1s-0.3-0.9-0.3-0.9c0,0,0,0,0-0.1
	c0,0-0.1-0.4-0.3-0.8C9.9,0.7,9.9,0.5,9.8,0.5C9.9,0.5,9.8,0.5,9.8,0.5L9.8,0.5z M6.1,3.3c0,0.2,0.1,0.3,0.1,0.3
	c0,0.1,0.3,0.9,0.3,1c0,0,0.1,0.2,0.1,0.5C6.8,5.5,6.9,5.8,7,6.2c0.1,0.3,0.4,1.2,0.4,1.3c0.1,0.2,0.4,1.2,0.4,1.3
	c0,0,0,0.2,0.1,0.3c0,0.1,0.1,0.3,0.1,0.3c0,0-3.9,0-4,0c0,0,0-0.1,0-0.2C4,9,4.1,8.7,4.2,8.4c0.2-0.6,0.4-1.2,0.4-1.2
	c0,0,0.1-0.2,0.1-0.4C4.8,6.5,5.1,5.6,5.4,5c0.1-0.2,0.2-0.6,0.3-0.9s0.2-0.7,0.3-0.8C6,3,6,3,6,3C6,3,6.1,3.2,6.1,3.3L6.1,3.3z"/>
</svg>
