<svg version="1" xmlns="http://www.w3.org/2000/svg" width="1445.333" height="1445.333" viewBox="0 0 1084.000000 1084.000000"><path d="M650 94.2c-1.3.5-7.6 2.4-14 4.3-10.5 3.1-33.7 10.1-108 32.7-14.6 4.4-30.8 9.3-36 10.8-11 3.3-45 13.6-49.7 15.1-2.4.8-3.5 2-4.7 5.2-1.8 4.8-17.4 50.4-18.1 52.7-.2.8-2.3 6.9-4.6 13.5-6 17.3-23 66.8-23.3 68-.2.5-.6 1.7-.9 2.5-.3.8-1.3 3.5-2.1 6s-3.3 9.9-5.6 16.5-4.3 12.4-4.4 13c-.2.5-.5 1.7-.9 2.5-.3.8-1.9 5.5-3.6 10.5-1.6 4.9-6.2 18.2-10.1 29.5-3.9 11.3-7.3 21.2-7.5 22-.2.8-4.5 13.4-9.5 28-5.1 14.6-10.5 30.3-12.1 35-1.5 4.7-6 17.7-9.9 29-3.9 11.3-7.3 21.2-7.5 22-.2.8-2 6-3.9 11.5-5.8 16.6-22.5 65.4-25.6 74.5-1.5 4.7-7.8 23.1-14 41-6.1 17.9-14.4 42.2-18.5 54-4 11.8-9.3 27.3-11.8 34.5-2.4 7.1-6.3 18.6-8.6 25.5-2.4 6.9-4.5 13.2-4.8 14-.3.8-3.2 9.1-6.3 18.5-17.2 50.4-28 76-43.6 103.1-26.4 46-58.4 75.3-91.7 84-8.7 2.2-9.3 2.4-17.2 3-3.8.3-7.5.7-8 .9-.6.1-1.1 2.9-1 6.1l.1 5.9 4.4-.1c2.5-.1 10.6-.5 18-.8 32.4-1.7 46.6-1.9 98-2 59.5 0 93.1.8 133.6 2.9 11.4.6 11 .8 10.9-7 0-5.7 1.9-5.1-17.5-5.8-66.5-2.7-94.5-26.5-94.3-80.2 0-11 .9-18.5 3.8-33 .8-3.9 1.6-8.1 1.9-9.5 3.1-15.3 14-51.6 31.9-106 3.6-10.8 13.1-40.1 23.7-73 5-15.7 10-31.2 11.1-34.5l1.9-6h125.2c124.8 0 125.3 0 126.1 2 .5 1.1 4.2 13.5 8.4 27.5 4.1 14 9 30.7 10.9 37 4.2 14 3.8 12.6 5.3 18 .7 2.5 3.7 12.6 6.6 22.5 18.9 63.5 27.4 92.4 30.5 104 .4 1.6 1.7 6.5 2.9 10.7 1.2 4.3 2.4 8.5 2.6 9.5.2 1 1.5 6.5 2.8 12.3 3.8 16.1 5 24.5 5.1 36.5.1 12.5-.6 18.3-3.5 26.9-5.3 15.9-15.9 25.9-32.9 31.4-9.1 2.8-10.8 3.2-21.3 3.9-5 .3-9.5 1-9.8 1.5-.3.5-.5 3.3-.5 6.1l.2 5.2 6.5-.1c3.5 0 15.4-.4 26.4-.8 45.5-1.5 91.9-2 201-2 120.2 0 181.1.8 228.3 2.8l10.2.5v-12.6l-7.7-.6c-16.7-1.3-29.1-5.6-42.8-14.8-19.8-13.3-36.9-38.4-47.5-69.8-32.7-96.5-44.2-130.8-44.5-132.1 0-.3-.3-1-.6-1.5-.4-.6-1.6-4.2-2.8-8-1.3-3.9-2.5-7.7-2.8-8.5-.3-.8-.7-2-.9-2.5-.1-.6-8.6-25.8-18.9-56-10.3-30.3-20.4-60.2-22.5-66.5-2.1-6.3-12.7-37.6-23.5-69.5s-22.8-67.5-26.6-79c-3.9-11.6-7.3-21.7-7.6-22.5-.5-1.3-26.9-79.3-39.3-116-2.7-8-13-38.6-23-68s-18.4-54.4-18.7-55.5c-.2-1.1-.9-2.9-1.3-4-.5-1.1-7.5-21.6-15.5-45.5-18.6-55.2-21.3-63.2-21.7-63.5-.2-.1-1.4.2-2.8.7zM430 261.5c2.7 9.3 5.4 18.3 6 20 1.2 3.9 17 56.4 17.7 59 .3 1.1 4.2 13.9 8.5 28.5 7.4 24.6 11.7 38.8 18.8 63 5 16.8 21.9 73.4 22.9 76.5 3.4 10.8 22 72.9 23.1 77 .4 1.6 2.8 9.7 5.3 18 2.6 8.2 4.4 15.1 4.2 15.3-.3.3-234.5.6-240.1.3-.7-.1.1-3.9 2.2-9.9 1.8-5.3 8.1-23.7 13.9-40.7 12.1-35.1 24.3-70.8 25.5-74.5.5-1.4 3.8-11.1 7.3-21.5 6.5-18.9 24.6-71.7 37.7-110 3.7-11 12.1-35.3 18.5-54 6.4-18.7 13.7-40.1 16.2-47.5 5.7-16.9 6.5-18.7 6.9-17.5.2.5 2.6 8.6 5.4 18z"/></svg>