<svg xmlns="http://www.w3.org/2000/svg" viewBox="0 0 500 112.04"><defs><style>.cls-1{fill:#353535;}.cls-2{fill:#aa5631;}</style></defs><title>Asset 12</title><g id="Layer_2" data-name="Layer 2"><g id="Layer_2-2" data-name="Layer 2"><path class="cls-1" d="M33,0,48,44.54c1.18,3.47,3.19,4.79,5.48,4.79V50s-3.81-.21-13.39-.21c-9.29,0-13,.21-13,.21v-.69c2.91,0,3.81-1.46,3.81-3.4a22.3,22.3,0,0,0-1.18-5.41L26.71,30.18h-14L9.58,39.82a19,19,0,0,0-1.05,5c0,3.54,2.15,4.51,6.25,4.51V50s-3.75-.21-8.4-.21C2.85,49.81,0,50,0,50v-.69c3.75,0,6.66-3.68,8.67-9.64L21,3.61ZM26.5,29.35,20.19,8.26,13,29.35Z"/><path class="cls-1" d="M85.9,12.21a17.92,17.92,0,0,0,.9-5.13c0-3.54-2.08-4.93-6.25-4.93V1.46s3,.21,8.19.21c4.16,0,6.59-.21,6.59-.21v.69c-3,0-6.24,2.64-8.6,10.06L74.59,50,62.93,51.27,49.13,7.56c-1.39-4.51-2.64-5.41-5.69-5.41V1.46s5.13.21,13,.21c7.35,0,14-.21,14-.21v.69c-2.57,0-4.17.76-4.17,3.19a16.06,16.06,0,0,0,.9,4.1l9.37,31.91Z"/><path class="cls-1" d="M139.39,16.3h-.69c-1-9.08-7.35-14-15.75-14a16.56,16.56,0,0,0-3.68.42V23.87h3.61c4.72,0,8.81-3.13,8.81-9.72h.7v22.2h-.7c0-5.61-3.05-11.65-10.06-11.65h-2.36V43.15c0,4.93,1.67,6.18,5.21,6.18,7.28,0,14.91-6.8,17-18.32h.76l-3.19,19c-12.56-.07-21.44-.21-27.89-.21-7.22,0-13.32.21-13.32.21v-.69c3.53,0,5.2-3.26,5.2-8.67V8.33c0-4.93-1.67-6.18-5.2-6.18V1.46s6.1.21,13.32.21c6.17,0,16.44-.14,28.23-.21Z"/><path class="cls-1" d="M222.45,60.5a10.43,10.43,0,0,0-1.81-5.62,8.14,8.14,0,0,1,5-1.8c4,0,6.31,2.7,6.31,5.61,0,4.1-4.23,8.68-16.86,8.68-22.41,0-34.27-7.7-40-26.09l-2.64-8.53c-1-3.4-2.15-5.48-6.17-5.48V43.15c0,4.93,1.67,6.18,5.2,6.18V50s-6.1-.21-13.32-.21-13.32.21-13.32.21v-.69c3.54,0,5.2-3.26,5.2-8.67V8.33c0-4.93-1.66-6.18-5.2-6.18V1.46s6.11.21,13.32.21c4.79,0,8.88-.21,13.74-.21,10.2,0,19.22,3.12,19.22,12.28,0,6.52-5.14,11.65-17.35,12.83v.28c8.33,0,14.23,4.16,17.56,12.63l3,7.63c4.72,12,11.72,19.56,21.16,19.56C220.09,66.67,222.45,63.41,222.45,60.5ZM166.32,26.36c5.62,0,8.19-4.44,8.19-12.62,0-6.66-2-11.45-6.46-11.45a5,5,0,0,0-1.73.28Z"/><path class="cls-1" d="M231.33,0l15.06,44.54c1.18,3.47,3.19,4.79,5.48,4.79V50s-3.81-.21-13.39-.21c-9.3,0-13,.21-13,.21v-.69c2.91,0,3.81-1.46,3.81-3.4a22.3,22.3,0,0,0-1.18-5.41l-3-10.34h-14L208,39.82a19.34,19.34,0,0,0-1,5c0,3.54,2.15,4.51,6.25,4.51V50s-3.75-.21-8.4-.21c-3.54,0-6.38.21-6.38.21v-.69c3.75,0,6.66-3.68,8.67-9.64L219.4,3.61Zm-6.45,29.35L218.57,8.26l-7.22,21.09Z"/><path class="cls-1" d="M305,27.34c-3.54,0-5.2,3.26-5.2,8.67V48.5c-11.52,0-11.94,2.84-24.22,2.84-16.23,0-25.6-10.13-25.6-24.49S260.06.14,276.3.14c8.74,0,11.24,2.22,20.4,2.22V16.3H296C293.78,5.69,285.25.83,278.38.83c-5,0-9.85,3.06-9.85,24.15,0,19.15,4.23,25.67,10.34,25.67,3.53,0,5-1.74,5-5.83V33.51c0-4.93-1.66-6.17-5.2-6.17v-.7H305Z"/><path class="cls-1" d="M347.28,16.3h-.69c-1-9.08-7.36-14-15.75-14a16.48,16.48,0,0,0-3.68.42V23.87h3.61c4.72,0,8.81-3.13,8.81-9.72h.69v22.2h-.69c0-5.61-3.05-11.65-10.06-11.65h-2.36V43.15c0,4.93,1.67,6.18,5.2,6.18,7.29,0,14.92-6.8,17-18.32h.76l-3.19,19c-12.55-.07-21.44-.21-27.89-.21-7.21,0-13.32.21-13.32.21v-.69c3.54,0,5.2-3.26,5.2-8.67V8.33c0-4.93-1.66-6.18-5.2-6.18V1.46s6.11.21,13.32.21c6.18,0,16.45-.14,28.24-.21Z"/><path class="cls-1" d="M374.14,59.39c1.87-2.78,2.08-6.87,2.08-10.2V8.33c0-4.93-1.67-6.18-5.21-6.18V1.46s6.11.21,13.32.21,13.33-.21,13.33-.21v.69c-3.54,0-5.21,3.26-5.21,8.67V44.68c0,6.31-1.66,9.85-4.92,12.63-5.21,4.44-12.91,3.47-17.63,8.25l-.41-.48C370.81,63,372.47,61.89,374.14,59.39Z"/><path class="cls-1" d="M452.54,24.56c0,14.85-9.92,26.78-26.3,26.78s-25.53-9.85-25.53-24.49C400.71,12,410.63.14,426.94.14S452.54,9.92,452.54,24.56ZM434.15,26.5c0-15.82-3.74-25.67-8.39-25.67-4.1,0-6.59,6.32-6.59,24.15,0,15.81,3.88,25.67,8.46,25.67C431.72,50.65,434.15,44.47,434.15,26.5Z"/><path class="cls-1" d="M497.16,16.3h-.7c-1-9.08-7.35-14-15.75-14a16.36,16.36,0,0,0-3.67.42V23.87h3.6c4.72,0,8.81-3.13,8.81-9.72h.7v22.2h-.7c0-5.61-3.05-11.65-10.06-11.65H477V43.15c0,4.93,1.66,6.18,5.2,6.18,7.28,0,14.92-6.8,17-18.32H500l-3.19,19c-12.56-.07-21.44-.21-27.89-.21-7.22,0-13.32.21-13.32.21v-.69c3.54,0,5.2-3.26,5.2-8.67V8.33c0-4.93-1.66-6.18-5.2-6.18V1.46s6.1.21,13.32.21c6.17,0,16.44-.14,28.24-.21Z"/><path class="cls-2" d="M111.67,106.47v-5.41c0-3.37,1.75-5.57,5.36-5.57a4.72,4.72,0,0,1,4.74,3.05l-1.6.81a3.22,3.22,0,0,0-3.14-2c-2.47,0-3.4,1.43-3.4,3.93v4.95c0,2.49.93,3.93,3.4,3.93a3.44,3.44,0,0,0,3.14-2l1.6.86A4.81,4.81,0,0,1,117,112C113.42,112,111.67,109.85,111.67,106.47Z"/><path class="cls-2" d="M126.35,106.47v-5.41c0-3.37,1.76-5.57,5.37-5.57s5.36,2.2,5.36,5.57v5.41c0,3.38-1.76,5.57-5.36,5.57S126.35,109.85,126.35,106.47Zm8.77-.23v-4.95c0-2.5-.91-3.93-3.4-3.93s-3.4,1.43-3.4,3.93v4.95c0,2.49.9,3.93,3.4,3.93S135.12,108.73,135.12,106.24Z"/><path class="cls-2" d="M143.21,95.67h8.14v1.81h-6.17v5.45h5.66v1.81h-5.66v7.12h-2Z"/><path class="cls-2" d="M157.21,95.67h8.14v1.81h-6.18v5.45h5.67v1.81h-5.67v7.12h-2Z"/><path class="cls-2" d="M173.16,102.7H179v1.81h-5.79v5.54h6.29v1.81H171.2V95.67h8.25v1.81h-6.29Z"/><path class="cls-2" d="M187.39,102.7h5.78v1.81h-5.78v5.54h6.29v1.81h-8.25V95.67h8.25v1.81h-6.29Z"/><path class="cls-2" d="M208.43,104.37h-6.81v7.49h-2V95.67h2v6.89h6.81V95.67h2v16.19h-2Z"/><path class="cls-2" d="M216.54,106.47v-5.41c0-3.37,1.75-5.57,5.36-5.57s5.36,2.2,5.36,5.57v5.41c0,3.38-1.75,5.57-5.36,5.57S216.54,109.85,216.54,106.47Zm8.76-.23v-4.95c0-2.5-.9-3.93-3.4-3.93s-3.4,1.43-3.4,3.93v4.95c0,2.49.9,3.93,3.4,3.93S225.3,108.73,225.3,106.24Z"/><path class="cls-2" d="M233.4,106.77V95.67h2v10.87c0,2.17.7,3.63,3.31,3.63s3.3-1.46,3.3-3.63V95.67h2v11.1c0,3.37-1.78,5.27-5.27,5.27S233.4,110.14,233.4,106.77Z"/><path class="cls-2" d="M257.52,107.39c0-4.94-7.75-1.82-7.75-7.58,0-2.77,1.64-4.32,4.67-4.32A7.16,7.16,0,0,1,258.83,97L258,98.43a6.35,6.35,0,0,0-3.52-1.11c-2.26,0-2.75,1.17-2.75,2.47,0,3.7,7.74,1.27,7.74,7.44,0,2.64-1.43,4.81-5.1,4.81a8.41,8.41,0,0,1-4.9-1.55l.9-1.55a7.85,7.85,0,0,0,4,1.23C256.73,110.17,257.52,108.94,257.52,107.39Z"/><path class="cls-2" d="M267.14,102.7h5.78v1.81h-5.78v5.54h6.29v1.81h-8.25V95.67h8.25v1.81h-6.29Z"/><path class="cls-2" d="M287.77,95.67h4.49c3.37,0,5.43,1.34,5.43,4.93,0,3.21-1.87,4.25-3,4.62l3.47,6.64h-2.22l-3.19-6.34h-3v6.34h-2Zm2,8h2.63c2.11,0,3.31-.81,3.31-3.12,0-2.48-1.25-3.12-3.56-3.12h-2.38Z"/><path class="cls-2" d="M305.72,102.7h5.78v1.81h-5.78v5.54H312v1.81h-8.25V95.67H312v1.81h-6.29Z"/><path class="cls-2" d="M321.17,111.86,316.5,95.67h2.1l3.73,13.69h.09l3.72-13.69h2.08l-4.67,16.19Z"/><path class="cls-2" d="M333.48,95.67h2v16.19h-2Z"/><path class="cls-2" d="M344.12,102.7h5.77v1.81h-5.77v5.54h6.28v1.81h-8.25V95.67h8.25v1.81h-6.28Z"/><path class="cls-2" d="M363.91,99.84l-2.7,12h-2.48L355,95.67h2.06L360,109.36h.09L363,95.67h1.94l2.93,13.69h.1l2.91-13.69h2.06l-3.75,16.19h-2.47l-2.71-12Z"/><path class="cls-2" d="M385.12,107.39c0-4.94-7.74-1.82-7.74-7.58,0-2.77,1.64-4.32,4.67-4.32A7.18,7.18,0,0,1,386.44,97l-.88,1.48a6.33,6.33,0,0,0-3.51-1.11c-2.27,0-2.75,1.17-2.75,2.47,0,3.7,7.74,1.27,7.74,7.44,0,2.64-1.43,4.81-5.11,4.81a8.44,8.44,0,0,1-4.9-1.55l.9-1.55a7.91,7.91,0,0,0,4,1.23C384.33,110.17,385.12,108.94,385.12,107.39Z"/></g></g></svg>