<svg xmlns="http://www.w3.org/2000/svg" viewBox="0 0 190.16 97.84"><defs><style>.cls-1{fill:#caa065;}</style></defs><title>Asset 3</title><g id="Layer_2" data-name="Layer 2"><g id="Layer_1-2" data-name="Layer 1"><path class="cls-1" d="M17.64,30.3c-2.28,2.22-6.48,5.64-10.44,5.64-4.14,0-7.2-2-7.2-6.9,0-6.12,7.26-9.24,17.64-12.9,0-4.8-.12-8.52-5-8.52S4.92,11,1.86,15.54H1.44V5.94H26.16L24.84,11.1V31.44h.06l4.44,3.9H17.64Zm0-12.48c-9.42,3.78-9.72,6.36-9.72,9.24s2,4.14,4.5,4.14a7.45,7.45,0,0,0,5.22-2.52Z"/><path class="cls-1" d="M60.18,5.94,56.83,9.72,45,36.18l-.24.48h-1.2l-12-26.94L28.21,5.94H44.05L39.67,9.78,46,25.26l.72,2L54,9.78,49.57,5.94Z"/><path class="cls-1" d="M83.75,18.42H64.49c.66,7.74,4.8,11,9.48,11,4.08,0,7.68-2,8.58-4.56l.9.36c-2.16,5.46-6.42,11-13.56,11-7.86,0-12.3-7-12.3-14.22,0-7.74,4.8-16.62,14.58-16.62,7.14,0,11.52,4.8,11.58,12.9l.06.12h-.06ZM76,16.08c0-6.42-2.58-8.94-5.22-8.94-4.56,0-6.42,5.46-6.42,9.06v.42H76Z"/><path class="cls-1" d="M95.69,10.5a20.4,20.4,0,0,1,11.16-5.22V15.66h-.42c-1.62-3.18-4.26-4.92-6.66-4.92a4.74,4.74,0,0,0-4.08,2.4v17.4l5.16,4.8H84.05l4.44-4.8V14L84.41,9.36l11.28-4Z"/><path class="cls-1" d="M124.7,30.3c-2.28,2.22-6.48,5.64-10.44,5.64-4.14,0-7.2-2-7.2-6.9,0-6.12,7.26-9.24,17.64-12.9,0-4.8-.12-8.52-5-8.52S112,11,108.92,15.54h-.42V5.94h24.72L131.9,11.1V31.44H132l4.44,3.9H124.7Zm0-12.48c-9.42,3.78-9.72,6.36-9.72,9.24s2,4.14,4.5,4.14a7.45,7.45,0,0,0,5.22-2.52Z"/><path class="cls-1" d="M162.18.06A21.46,21.46,0,0,1,160,8.58a8.89,8.89,0,0,1,2.1,5.82c0,5.16-4.26,11.58-13.56,11.58a13.4,13.4,0,0,1-3.6-.48c-.84.78-2.22,1.86-2.22,2.7,0,1.8,1.2,2.64,3.3,2.88h16.14A9.78,9.78,0,0,1,163.5,36c0,7-5.34,13.26-15.18,13.26-8.1,0-12-2.58-12-6.78,0-2.94,3.12-4.62,5.1-5.46a5.75,5.75,0,0,1-3.6-4.86c0-3.66,3.24-5.7,5.58-7.14a8.94,8.94,0,0,1-5.58-8.46c0-5.16,4.14-11.34,13.44-11.34a15.55,15.55,0,0,1,3.06.3L161.94,0Zm-19.32,37.8a4.92,4.92,0,0,0-2,4.08c0,4,2.88,5.94,8.28,5.94,6.72,0,9.84-3.72,9.84-6.6a5.55,5.55,0,0,0-.84-3.42Zm2.64-25c0,6.18,2.1,11.4,5.52,11.4,2.94,0,3.3-3.9,3.3-6.3,0-6.18-2.22-11-5.64-11C145.74,7,145.5,10.5,145.5,12.9Z"/><path class="cls-1" d="M190.1,18.42H170.84c.66,7.74,4.8,11,9.48,11,4.08,0,7.68-2,8.58-4.56l.9.36c-2.16,5.46-6.42,11-13.56,11-7.86,0-12.3-7-12.3-14.22,0-7.74,4.8-16.62,14.58-16.62,7.14,0,11.52,4.8,11.58,12.9l.06.12h-.06Zm-7.74-2.34c0-6.42-2.58-8.94-5.22-8.94-4.56,0-6.42,5.46-6.42,9.06v.42h11.64Z"/><path class="cls-1" d="M130,80h.06v8.28c0,4.62-5.82,7.44-7.86,9.6l-.42-.18c.9-1.44,1-4.5,1-4.5V63l-4.08-4.62,11.28-4Zm-3.78-39.48,5.1,5.52-5.1,5.58L121.05,46Z"/><path class="cls-1" d="M146,85.06c-8.52,0-13-6.9-13-14.1,0-7.74,5.22-16.74,16.38-16.74,8.52,0,13,6.9,13,14.1C162.34,76.06,157.12,85.06,146,85.06Zm-5.4-19.56c0,9.36,3.42,17.28,8.7,17.28,4.44,0,5.58-5.88,5.58-9,0-9.36-3.48-17.28-8.76-17.28C141.1,56.5,140.56,61.9,140.56,65.5Z"/><path class="cls-1" d="M190.1,67.42H170.84c.66,7.74,4.8,11,9.48,11,4.08,0,7.68-2,8.58-4.56l.9.36c-2.16,5.46-6.42,11-13.56,11-7.86,0-12.3-7-12.3-14.22,0-7.74,4.8-16.62,14.58-16.62,7.14,0,11.52,4.8,11.58,12.9l.06.12h-.06Zm-7.74-2.34c0-6.42-2.58-8.94-5.22-8.94-4.56,0-6.42,5.46-6.42,9.06v.42h11.64Z"/></g></g></svg>